# xmcd
#
# Track frame offsets:
# 150
# 16662
# 29937
# 44545
# 61210
# 81127
# 98077
# 111279
# 126875
# 140580
# 155827
# 174707
# 190117
# 210267
# 226755
#
# Disc length: 3266 seconds
#
#
# Revision: 2
# Processed by: cddbd v1.5.1PL2 Copyright (c) Steve Scherf et al.
# Submitted via: FreeRIP 2.944 
#
DISCID=ca0cc00f
DTITLE=Tião Carreiro and Pardinho - Som Da Terra Volume 3 Modas De Viola
DYEAR=1900
DGENRE=Country
TTITLE0=Terra Roxa
TTITLE1=Rei Do Gado
TTITLE2=Herói Sem Medalha
TTITLE3=Ferreirinha
TTITLE4=Gato De Três Cores
TTITLE5=Catimbau
TTITLE6=Boiadeiro Punho De Aço
TTITLE7=Preto Inocente
TTITLE8=O Mineiro E O Italiano
TTITLE9=Travessia Do Araguaia
TTITLE10=A Volta Que O Mundo Dá
TTITLE11=Boiada Cuiabana
TTITLE12=Exemplo De Humildade
TTITLE13=Três Cuiabanas
TTITLE14=Mineiro Do Pé Quente
EXTD=
EXTT0=
EXTT1=
EXTT2=
EXTT3=
EXTT4=
EXTT5=
EXTT6=
EXTT7=
EXTT8=
EXTT9=
EXTT10=
EXTT11=
EXTT12=
EXTT13=
EXTT14=
PLAYORDER=
